/***********************
*
* Conversion of LungSim to GMSH
*
***********************/

lc =  1.0000;

sc =  1.0000;


/* Points */
Point(       1) = { 180.7337600, 111.9603600,-147.7132400,lc};
Point(       2) = { 167.9485900, 111.4449500,-141.6904700,lc};
Point(       3) = { 171.5756400,  99.5186400,-135.0115600,lc};
Point(       4) = { 184.3608100, 100.0340500,-141.0343300,lc};
Point(       5) = { 185.3734600, 119.2357600,-137.2414400,lc};
Point(       6) = { 172.5882900, 118.7203500,-131.2186700,lc};
Point(       7) = { 176.2153400, 106.7940400,-124.5397600,lc};
Point(       8) = { 189.0005100, 107.3094500,-130.5625300,lc};
Point(       9) = { 188.9096100, 125.5442700,-130.3420600,lc};
Point(      10) = { 174.9296700, 126.6964800,-132.1403600,lc};
Point(      11) = { 172.7951900, 119.5711300,-120.1123400,lc};
Point(      12) = { 186.7751300, 118.4189200,-118.3140400,lc};
Point(      13) = { 188.5197700, 134.7317500,-125.8197400,lc};
Point(      14) = { 176.3905600, 133.8056200,-133.0325500,lc};
Point(      15) = { 169.5538300, 130.4776500,-121.1084600,lc};
Point(      16) = { 181.6830400, 131.4037800,-113.8956500,lc};
Point(      17) = { 185.6797400, 145.7173700,-124.7272800,lc};
Point(      18) = { 174.2361200, 146.3114600,-132.4855500,lc};
Point(      19) = { 165.7795900, 139.0234700,-124.3080000,lc};
Point(      20) = { 174.0322800, 147.8519400,-117.5662500,lc};
Point(      21) = { 173.3743500, 152.5860200,-125.0372000,lc};
Point(      22) = { 190.1573500, 148.0913700,-120.9253300,lc};
Point(      23) = { 190.3380600, 146.9581200,-127.9026500,lc};
Point(      24) = { 188.3880000, 153.6588900,-129.0414900,lc};
Point(      25) = { 188.2072900, 154.7921400,-122.0641600,lc};
Point(      26) = { 198.2184100, 155.4755800,-124.1656100,lc};
Point(      27) = { 197.5964100, 153.8183400,-131.0115300,lc};
Point(      28) = { 193.6091900, 159.5666200,-132.0407900,lc};
Point(      29) = { 194.2311900, 161.2238600,-125.1948700,lc};
Point(      30) = { 149.3246300, 151.9431600,-121.9227700,lc};
Point(      31) = { 149.1855100, 151.5664300,-128.9824300,lc};
Point(      32) = { 149.1528800, 144.5055200,-128.6049900,lc};
Point(      33) = { 149.2920000, 144.8822500,-121.5453300,lc};
Point(      34) = { 131.9016000, 153.9721000,-122.7893600,lc};
Point(      35) = { 133.1068400, 155.8456900,-129.5003200,lc};
Point(      36) = { 131.9734000, 149.1785000,-131.5652400,lc};
Point(      37) = { 130.7681600, 147.3049100,-124.8542800,lc};
Point(      38) = { 177.4065366, 113.4281736,-147.2588440,lc};
Point(      39) = { 173.6994669, 113.8127193,-145.8835215,lc};
Point(      40) = { 170.3132513, 113.1422329,-143.9173657,lc};
Spline(       1) = {       1,      38,      39,      40,       2};
Point(      41) = { 167.0594372, 108.7217857,-139.4045887,lc};
Point(      42) = { 167.5000883, 105.3905900,-137.2854463,lc};
Point(      43) = { 169.0717527, 102.1049967,-135.6990884,lc};
Spline(       2) = {       2,      41,      42,      43,       3};
Point(      44) = { 174.9028634,  98.0508264,-135.4659560,lc};
Point(      45) = { 178.6099331,  97.6662807,-136.8412785,lc};
Point(      46) = { 181.9961487,  98.3367671,-138.8074343,lc};
Spline(       3) = {       3,      44,      45,      46,       4};
Point(      47) = { 185.2499628, 102.7572143,-143.3202113,lc};
Point(      48) = { 184.8093117, 106.0884100,-145.4393537,lc};
Point(      49) = { 183.2376473, 109.3740033,-147.0257116,lc};
Spline(       4) = {       4,      47,      48,      49,       1};
Point(      50) = { 182.0462366, 120.7035736,-136.7870440,lc};
Point(      51) = { 178.3391669, 121.0881193,-135.4117215,lc};
Point(      52) = { 174.9529513, 120.4176329,-133.4455657,lc};
Spline(       5) = {       5,      50,      51,      52,       6};
Point(      53) = { 171.6991372, 115.9971857,-128.9327887,lc};
Point(      54) = { 172.1397883, 112.6659900,-126.8136463,lc};
Point(      55) = { 173.7114527, 109.3803967,-125.2272884,lc};
Spline(       6) = {       6,      53,      54,      55,       7};
Point(      56) = { 179.5425634, 105.3262264,-124.9941560,lc};
Point(      57) = { 183.2496331, 104.9416807,-126.3694785,lc};
Point(      58) = { 186.6358487, 105.6121671,-128.3356343,lc};
Spline(       7) = {       7,      56,      57,      58,       8};
Point(      59) = { 189.8896628, 110.0326143,-132.8484113,lc};
Point(      60) = { 189.4490117, 113.3638100,-134.9675537,lc};
Point(      61) = { 187.8773473, 116.6494033,-136.5539116,lc};
Spline(       8) = {       8,      59,      60,      61,       5};
Point(      62) = { 181.5892042, 113.3017570,-145.7825068,lc};
Point(      63) = { 183.0536100, 115.5980600,-142.4773400,lc};
Point(      64) = { 184.5180158, 117.8943630,-139.1721732,lc};
Spline(       9) = {       1,      62,      63,      64,       5};
Point(      65) = { 168.8040342, 112.7863470,-139.7597368,lc};
Point(      66) = { 170.2684400, 115.0826500,-136.4545700,lc};
Point(      67) = { 171.7328458, 117.3789530,-133.1494032,lc};
Spline(      10) = {       2,      65,      66,      67,       6};
Point(      68) = { 172.4310842, 100.8600370,-133.0808268,lc};
Point(      69) = { 173.8954900, 103.1563400,-129.7756600,lc};
Point(      70) = { 175.3598958, 105.4526430,-126.4704932,lc};
Spline(      11) = {       3,      68,      69,      70,       7};
Point(      71) = { 185.2162542, 101.3754470,-139.1035968,lc};
Point(      72) = { 186.6806600, 103.6717500,-135.7984300,lc};
Point(      73) = { 188.1450658, 105.9680530,-132.4932632,lc};
Spline(      12) = {       4,      71,      72,      73,       8};
Line Loop(       1) = {       1,      10,      -5,      -9};
Surface(       2) = {       1};
Line Loop(       3) = {       2,      11,      -6,     -10};
Surface(       4) = {       3};
Line Loop(       5) = {       3,      12,      -7,     -11};
Surface(       6) = {       5};
Line Loop(       7) = {       4,       9,      -8,     -12};
Surface(       8) = {       7};
Point(      74) = { 186.0809550, 126.7462461,-132.3384136,lc};
Point(      75) = { 182.2972873, 127.3810393,-133.3692865,lc};
Point(      76) = { 178.3247959, 127.3855004,-133.3361211,lc};
Spline(      13) = {       9,      74,      75,      76,      10};
Point(      77) = { 172.5994917, 125.2632853,-129.7015774,lc};
Point(      78) = { 171.3890325, 123.3376583,-126.4445147,lc};
Point(      79) = { 171.4152720, 121.3101046,-123.0283697,lc};
Spline(      14) = {      10,      77,      78,      79,      11};
Point(      80) = { 175.6238450, 118.3691539,-118.1159864,lc};
Point(      81) = { 179.4075127, 117.7343607,-117.0851135,lc};
Point(      82) = { 183.3800041, 117.7298996,-117.1182789,lc};
Spline(      15) = {      11,      80,      81,      82,      12};
Point(      83) = { 189.1053083, 119.8521147,-120.7528226,lc};
Point(      84) = { 190.3157675, 121.7777417,-124.0098853,lc};
Point(      85) = { 190.2895280, 123.8052954,-127.4260303,lc};
Spline(      16) = {      12,      83,      84,      85,       9};
Point(      86) = { 186.0694351, 120.3266838,-135.9097231,lc};
Point(      87) = { 187.2677398, 122.2686580,-133.6937823,lc};
Point(      88) = { 188.4029422, 124.2713106,-131.5268253,lc};
Spline(      17) = {       5,      86,      87,      88,       9};
Point(      89) = { 173.0741811, 120.0546751,-131.1503793,lc};
Point(      90) = { 173.8645971, 122.6068548,-131.5975287,lc};
Point(      91) = { 174.6022046, 125.2098146,-132.0856712,lc};
Spline(      18) = {       6,      89,      90,      91,      10};
Point(      92) = { 175.8811296, 108.9372945,-123.4939508,lc};
Point(      93) = { 174.6813849, 113.0132302,-122.1893352,lc};
Point(      94) = { 173.3935803, 117.1738433,-120.9530770,lc};
Spline(      19) = {       7,      92,      93,      94,      11};
Point(      95) = { 188.8922600, 109.2209483,-128.2252176,lc};
Point(      96) = { 188.0984953, 112.6616022,-124.2747462,lc};
Point(      97) = { 187.1993930, 116.2035475,-120.4060442,lc};
Spline(      20) = {       8,      95,      96,      97,      12};
Line Loop(       9) = {       5,      18,     -13,     -17};
Surface(      10) = {       9};
Line Loop(      11) = {       6,      19,     -14,     -18};
Surface(      12) = {      11};
Line Loop(      13) = {       7,      20,     -15,     -19};
Surface(      14) = {      13};
Line Loop(      15) = {       8,      17,     -16,     -20};
Surface(      16) = {      15};
Point(      98) = { 186.7270473, 134.9671973,-129.0075327,lc};
Point(      99) = { 183.6647683, 134.8574926,-131.5358029,lc};
Point(     100) = { 179.9976876, 134.4533841,-133.0092442,lc};
Spline(      21) = {      13,      98,      99,     100,      14};
Point(     101) = { 173.2592469, 132.9419206,-131.3353847,lc};
Point(     102) = { 170.8262314, 131.9777667,-128.3466325,lc};
Point(     103) = { 169.4661977, 131.0955470,-124.7198166,lc};
Spline(      22) = {      14,     101,     102,     103,      15};
Point(     104) = { 171.3465527, 130.2422027,-117.9206673,lc};
Point(     105) = { 174.4088317, 130.3519074,-115.3923971,lc};
Point(     106) = { 178.0759124, 130.7560159,-113.9189558,lc};
Spline(      23) = {      15,     104,     105,     106,      16};
Point(     107) = { 184.8143531, 132.2674794,-115.5928153,lc};
Point(     108) = { 187.2473686, 133.2316333,-118.5815675,lc};
Point(     109) = { 188.6074023, 134.1138530,-122.2083834,lc};
Spline(      24) = {      16,     107,     108,     109,      13};
Point(     110) = { 188.8762127, 127.2118432,-129.4393251,lc};
Point(     111) = { 188.7840415, 130.0958278,-127.9501646,lc};
Point(     112) = { 188.6571946, 133.0009034,-126.5263717,lc};
Spline(      25) = {       9,     110,     111,     112,      13};
Point(     113) = { 175.1775697, 127.9728665,-132.1398057,lc};
Point(     114) = { 175.7096064, 130.2209475,-132.4931581,lc};
Point(     115) = { 176.2168974, 132.4840797,-132.8931590,lc};
Spline(      26) = {      10,     113,     114,     115,      14};
Point(     116) = { 172.3193953, 121.5338888,-120.0493899,lc};
Point(     117) = { 171.2518077, 124.9773746,-120.4646851,lc};
Point(     118) = { 170.1455713, 128.4443680,-120.9528377,lc};
Spline(      27) = {      11,     116,     117,     118,      15};
Point(     119) = { 186.0187749, 120.7790775,-117.3436588,lc};
Point(     120) = { 184.3280996, 124.8511256,-115.9181914,lc};
Point(     121) = { 182.5879169, 128.9532859,-114.5860509,lc};
Spline(      28) = {      12,     119,     120,     121,      16};
Line Loop(      17) = {      13,      26,     -21,     -25};
Surface(      18) = {      17};
Line Loop(      19) = {      14,      27,     -22,     -26};
Surface(      20) = {      19};
Line Loop(      21) = {      15,      28,     -23,     -27};
Surface(      22) = {      21};
Line Loop(      23) = {      16,      25,     -24,     -28};
Surface(      24) = {      23};
Point(     122) = { 184.5334234, 145.8171179,-127.8898384,lc};
Point(     123) = { 181.6222008, 146.3885045,-130.3630914,lc};
Point(     124) = { 177.8788428, 146.7728464,-131.9580062,lc};
Spline(      29) = {      17,     122,     123,     124,      18};
Point(     125) = { 171.0777780, 144.4851365,-131.8146967,lc};
Point(     126) = { 168.3906446, 141.9377430,-130.0842982,lc};
Point(     127) = { 166.5121163, 139.7552105,-127.5101380,lc};
Spline(      30) = {      18,     125,     126,     127,      19};
Point(     128) = { 166.4273241, 140.3959971,-121.3042737,lc};
Point(     129) = { 168.2416649, 143.0636156,-119.1804494,lc};
Point(     130) = { 170.8881408, 145.9182788,-117.9349628,lc};
Spline(      31) = {      19,     128,     129,     130,      20};
Point(     131) = { 177.6892050, 148.2059885,-118.0782719,lc};
Point(     132) = { 181.4732206, 147.5143771,-119.4592416,lc};
Point(     133) = { 184.4486309, 146.4579046,-121.6839730,lc};
Spline(      32) = {      20,     131,     132,     133,      17};
Point(     134) = { 188.0351424, 136.5366036,-125.5275839,lc};
Point(     135) = { 187.1405798, 139.6310964,-125.0951061,lc};
Point(     136) = { 186.2256049, 143.0223210,-124.7518303,lc};
Spline(      33) = {      13,     134,     135,     136,      17};
Point(     137) = { 176.0170257, 136.1109745,-132.8377356,lc};
Point(     138) = { 175.3818668, 140.0716071,-132.6295699,lc};
Point(     139) = { 174.7124445, 144.0257061,-132.4861442,lc};
Spline(      34) = {      14,     137,     138,     139,      18};
Point(     140) = { 169.0602987, 131.9337366,-121.5059405,lc};
Point(     141) = { 168.0530154, 134.3544779,-122.5610725,lc};
Point(     142) = { 166.8525794, 136.9732603,-123.6897833,lc};
Spline(      35) = {      15,     140,     141,     142,      19};
Point(     143) = { 180.4338366, 134.4857159,-114.3098516,lc};
Point(     144) = { 177.9575118, 139.6469003,-115.5422820,lc};
Point(     145) = { 175.4312610, 144.7985646,-116.8690463,lc};
Spline(      36) = {      16,     143,     144,     145,      20};
Line Loop(      25) = {      21,      34,     -29,     -33};
Surface(      26) = {      25};
Line Loop(      27) = {      22,      35,     -30,     -34};
Surface(      28) = {      27};
Line Loop(      29) = {      23,      36,     -31,     -35};
Surface(      30) = {      29};
Line Loop(      31) = {      24,      33,     -32,     -36};
Surface(      32) = {      31};
Point(     146) = { 173.6682445, 148.5424288,-131.9183510,lc};
Point(     147) = { 173.4312384, 150.4765390,-130.1034414,lc};
Point(     148) = { 173.3812306, 151.8967497,-127.6174985,lc};
Spline(      37) = {      18,     146,     147,     148,      21};
Point(     149) = { 173.3272367, 152.3672103,-122.6691577,lc};
Point(     150) = { 173.3337366, 151.3798393,-120.3097133,lc};
Point(     151) = { 173.5250257, 149.8120387,-118.4462748,lc};
Spline(      38) = {      21,     149,     150,     151,      20};
Point(     152) = { 189.9277256, 148.2999899,-129.0843046,lc};
Point(     153) = { 189.3950827, 150.1075441,-129.7093741,lc};
Point(     154) = { 188.8464134, 152.0155787,-129.7157916,lc};
Spline(      39) = {      23,     152,     153,     154,      24};
Point(     155) = { 188.0883902, 154.8025116,-127.6387586,lc};
Point(     156) = { 187.9518396, 155.4137696,-125.7547791,lc};
Point(     157) = { 187.9881916, 155.4309002,-123.7698225,lc};
Spline(      40) = {      24,     155,     156,     157,      25};
Point(     158) = { 188.6176243, 153.4502701,-120.8825072,lc};
Point(     159) = { 189.1502673, 151.6427159,-120.2574412,lc};
Point(     160) = { 189.6989367, 149.7346812,-120.2510271,lc};
Spline(      41) = {      25,     158,     159,     160,      22};
Point(     161) = { 190.4569594, 146.9477497,-122.3280594,lc};
Point(     162) = { 190.5935100, 146.3364921,-124.2120362,lc};
Point(     163) = { 190.5571580, 146.3193609,-126.1969899,lc};
Spline(      42) = {      22,     161,     162,     163,      23};
Point(     164) = { 186.2633707, 146.4641999,-125.2821254,lc};
Point(     165) = { 187.7417382, 146.7893199,-126.3642498,lc};
Point(     166) = { 189.3536866, 146.8886525,-127.4217318,lc};
Spline(      43) = {      17,     164,     165,     166,      23};
Point(     167) = { 176.7027687, 148.3507957,-132.0348999,lc};
Point(     168) = { 181.1472061, 150.6647791,-130.8331404,lc};
Point(     169) = { 185.6740705, 152.6389604,-129.5965706,lc};
Spline(      44) = {      18,     167,     168,     169,      24};
Point(     170) = { 176.0966118, 153.0769325,-124.5812477,lc};
Point(     171) = { 180.7832333, 153.7134644,-123.5506800,lc};
Point(     172) = { 185.4736482, 154.3378041,-122.5201123,lc};
Spline(      45) = {      21,     170,     171,     172,      25};
Point(     173) = { 176.8097478, 148.7894033,-118.1794496,lc};
Point(     174) = { 181.9283423, 148.6579328,-119.3160940,lc};
Point(     175) = { 187.1301731, 148.1833234,-120.4175864,lc};
Spline(      46) = {      20,     173,     174,     175,      22};
Line Loop(      33) = {      29,      44,     -39,     -43};
Surface(      34) = {      33};
Line Loop(      35) = {      37,      45,     -40,     -44};
Surface(      36) = {      35};
Line Loop(      37) = {      38,      46,     -41,     -45};
Surface(      38) = {      37};
Line Loop(      39) = {      32,      43,     -42,     -46};
Surface(      40) = {      39};
Point(     176) = { 149.1597336, 149.9435174,-129.8372783,lc};
Point(     177) = { 149.1445193, 147.9691742,-130.0456080,lc};
Point(     178) = { 149.1416429, 146.0282315,-129.6279887,lc};
Spline(      47) = {      31,     176,     177,     178,      32};
Point(     179) = { 149.1795285, 143.6503437,-126.9822555,lc};
Point(     180) = { 149.2166501, 143.4417640,-125.0082262,lc};
Point(     181) = { 149.2566667, 143.8592449,-123.0676637,lc};
Spline(      48) = {      32,     179,     180,     181,      33};
Point(     182) = { 149.3177764, 146.5051626,-120.6904817,lc};
Point(     183) = { 149.3329907, 148.4795058,-120.4821520,lc};
Point(     184) = { 149.3358671, 150.4204485,-120.8997713,lc};
Spline(      49) = {      33,     182,     183,     184,      30};
Point(     185) = { 149.2979815, 152.7983363,-123.5455045,lc};
Point(     186) = { 149.2608599, 153.0069160,-125.5195338,lc};
Point(     187) = { 149.2208433, 152.5894351,-127.4600963,lc};
Spline(      50) = {      30,     185,     186,     187,      31};
Point(     188) = { 168.9590677, 152.0948793,-125.6396717,lc};
Point(     189) = { 161.3279163, 151.7777902,-127.0092937,lc};
Point(     190) = { 153.6727718, 151.6099185,-128.3791764,lc};
Spline(      51) = {      21,     188,     189,     190,      31};
Point(     191) = { 169.1788017, 146.7635020,-131.9826271,lc};
Point(     192) = { 161.3189152, 146.0575253,-130.6495355,lc};
Point(     193) = { 153.6468211, 145.0270309,-129.2643111,lc};
Spline(      52) = {      18,     191,     192,     193,      32};
Point(     194) = { 162.5418733, 141.4616319,-124.0509771,lc};
Point(     195) = { 157.3905875, 143.3038857,-123.0904968,lc};
Point(     196) = { 152.3119054, 144.4706267,-122.0481006,lc};
Spline(      53) = {      19,     194,     195,     196,      33};
Point(     197) = { 169.0348015, 149.2246688,-118.3502660,lc};
Point(     198) = { 161.3032510, 150.5459272,-119.8486698,lc};
Point(     199) = { 153.7593025, 151.5429970,-121.2949936,lc};
Spline(      54) = {      20,     197,     198,     199,      30};
Line Loop(      41) = {     -37,      52,     -47,     -51};
Surface(      42) = {      41};
Line Loop(      43) = {      30,      53,     -48,     -52};
Surface(      44) = {      43};
Line Loop(      45) = {      31,      54,     -49,     -53};
Surface(      46) = {      45};
Line Loop(      47) = {     -38,      51,     -50,     -54};
Surface(      48) = {      47};
Point(     200) = { 198.6101518, 154.3419214,-125.5536470,lc};
Point(     201) = { 198.6144658, 153.6276148,-127.4060517,lc};
Point(     202) = { 198.2652519, 153.4229807,-129.3497155,lc};
Spline(      55) = {      26,     200,     201,     202,      27};
Point(     203) = { 196.6255356, 154.8783515,-132.1512985,lc};
Point(     204) = { 195.4924998, 156.3985973,-132.7401629,lc};
Point(     205) = { 194.4146141, 158.0657845,-132.7220259,lc};
Spline(      56) = {      27,     203,     204,     205,      28};
Point(     206) = { 193.2174482, 160.7002786,-130.6527530,lc};
Point(     207) = { 193.2131342, 161.4145852,-128.8003483,lc};
Point(     208) = { 193.5623481, 161.6192193,-126.8566845,lc};
Spline(      57) = {      28,     206,     207,     208,      29};
Point(     209) = { 195.2020644, 160.1638485,-124.0551015,lc};
Point(     210) = { 196.3351002, 158.6436027,-123.4662371,lc};
Point(     211) = { 197.4129859, 156.9764155,-123.4843741,lc};
Spline(      58) = {      29,     209,     210,     211,      26};
Point(     212) = { 191.7474306, 149.2925454,-121.4085715,lc};
Point(     213) = { 194.2476138, 151.6736282,-122.4669225,lc};
Point(     214) = { 196.7179300, 154.1096344,-123.5645472,lc};
Spline(      59) = {      22,     212,     213,     214,      26};
Point(     215) = { 191.7754092, 148.0735065,-128.3672648,lc};
Point(     216) = { 194.0220338, 150.2874583,-129.3850318,lc};
Point(     217) = { 196.2412590, 152.5517959,-130.4388279,lc};
Spline(      60) = {      23,     215,     216,     217,      27};
Point(     218) = { 189.4483617, 154.6170363,-129.4930754,lc};
Point(     219) = { 191.0427892, 156.5314846,-130.4830264,lc};
Point(     220) = { 192.6151195, 158.4865681,-131.5020343,lc};
Spline(      61) = {      24,     218,     219,     220,      28};
Point(     221) = { 189.4196339, 155.8359677,-122.5344260,lc};
Point(     222) = { 191.2682337, 157.9179034,-123.5650902,lc};
Point(     223) = { 193.0923367, 160.0448874,-124.6279668,lc};
Spline(      62) = {      25,     221,     222,     223,      29};
Line Loop(      49) = {      42,      60,     -55,     -59};
Surface(      50) = {      49};
Line Loop(      51) = {      39,      61,     -56,     -60};
Surface(      52) = {      51};
Line Loop(      53) = {      40,      62,     -57,     -61};
Surface(      54) = {      53};
Line Loop(      55) = {      41,      59,     -58,     -62};
Surface(      56) = {      55};
Point(     224) = { 132.3208142, 155.2761693,-124.0095854,lc};
Point(     225) = { 132.7052162, 156.0911987,-125.7786596,lc};
Point(     226) = { 132.9891202, 156.3150763,-127.7308239,lc};
Spline(      63) = {      34,     224,     225,     226,      35};
Point(     227) = { 133.0146629, 154.6097636,-130.8528286,lc};
Point(     228) = { 132.7538488, 152.8443433,-131.7228429,lc};
Point(     229) = { 132.3861702, 150.9127989,-131.9978256,lc};
Spline(      64) = {      35,     227,     228,     229,      36};
Point(     230) = { 131.5541858, 147.8744307,-130.3450146,lc};
Point(     231) = { 131.1697838, 147.0594013,-128.5759404,lc};
Point(     232) = { 130.8858798, 146.8355237,-126.6237761,lc};
Spline(      65) = {      36,     230,     231,     232,      37};
Point(     233) = { 130.8603371, 148.5408364,-123.5017714,lc};
Point(     234) = { 131.1211512, 150.3062567,-122.6317571,lc};
Point(     235) = { 131.4888298, 152.2378011,-122.3567744,lc};
Spline(      66) = {      37,     233,     234,     235,      34};
Point(     236) = { 146.1016357, 152.2145174,-122.0146013,lc};
Point(     237) = { 140.5949601, 152.8283942,-122.2654222,lc};
Point(     238) = { 135.0973619, 153.5068889,-122.5615645,lc};
Spline(      67) = {      30,     236,     237,     238,      34};
Point(     239) = { 146.1986758, 152.1917809,-129.0220488,lc};
Point(     240) = { 141.1289667, 153.5835626,-129.1554583,lc};
Point(     241) = { 136.0678617, 155.0365931,-129.3318261,lc};
Spline(      68) = {      31,     239,     240,     241,      35};
Point(     242) = { 145.9540864, 145.1887451,-129.0227499,lc};
Point(     243) = { 140.5444827, 146.7091980,-129.9919639,lc};
Point(     244) = { 135.1442076, 148.2960570,-131.0077534,lc};
Spline(      69) = {      32,     242,     243,     244,      36};
Point(     245) = { 145.8568028, 145.2114594,-122.0152811,lc};
Point(     246) = { 140.0104673, 145.9539667,-123.1018836,lc};
Point(     247) = { 134.1739381, 146.7662807,-124.2374468,lc};
Spline(      70) = {      33,     245,     246,     247,      37};
Line Loop(      57) = {      50,      68,     -63,     -67};
Surface(      58) = {      57};
Line Loop(      59) = {      47,      69,     -64,     -68};
Surface(      60) = {      59};
Line Loop(      61) = {      48,      70,     -65,     -69};
Surface(      62) = {      61};
Line Loop(      63) = {      49,      67,     -66,     -70};
Surface(      64) = {      63};
Point(     248) = { 176.1547000, 105.7395000,-141.3624000,lc};
Line(      71) = {     248,       1};
Line(      72) = {     248,       2};
Line(      73) = {     248,       3};
Line(      74) = {     248,       4};
Line Loop(      65) = {      71,       1,     -72};
Surface(      66) = {      65};
Line Loop(      67) = {      72,       2,     -73};
Surface(      68) = {      67};
Line Loop(      69) = {      73,       3,     -74};
Surface(      70) = {      69};
Line Loop(      71) = {      74,       4,     -71};
Surface(      72) = {      71};
Point(     249) = { 180.7944000, 113.0149000,-130.8906000,lc};
Line(      75) = {     249,       5};
Line(      76) = {     249,       6};
Line(      77) = {     249,       7};
Line(      78) = {     249,       8};
Line Loop(      73) = {      75,       5,     -76};
Surface(      74) = {      73};
Line Loop(      75) = {      76,       6,     -77};
Surface(      76) = {      75};
Line Loop(      77) = {      77,       7,     -78};
Surface(      78) = {      77};
Line Loop(      79) = {      78,       8,     -75};
Surface(      80) = {      79};
Line(      79) = {     248,     249};
Line Loop(      81) = {      71,       9,     -75,     -79};
Surface(      82) = {      81};
Line Loop(      83) = {      72,      10,     -76,     -79};
Surface(      84) = {      83};
Line Loop(      85) = {      73,      11,     -77,     -79};
Surface(      86) = {      85};
Line Loop(      87) = {      74,      12,     -78,     -79};
Surface(      88) = {      87};
Surface Loop(       1) = {      66,      74,       2,      82,      84};
Volume(       2) = {       1};
Surface Loop(       3) = {      68,      76,       4,      84,      86};
Volume(       4) = {       3};
Surface Loop(       5) = {      70,      78,       6,      86,      88};
Volume(       6) = {       5};
Surface Loop(       7) = {      72,      80,       8,      88,      82};
Volume(       8) = {       7};
Point(     250) = { 180.8524000, 122.5577000,-125.2272000,lc};
Line(      80) = {     250,       9};
Line(      81) = {     250,      10};
Line(      82) = {     250,      11};
Line(      83) = {     250,      12};
Line Loop(      89) = {      80,      13,     -81};
Surface(      90) = {      89};
Line Loop(      91) = {      81,      14,     -82};
Surface(      92) = {      91};
Line Loop(      93) = {      82,      15,     -83};
Surface(      94) = {      93};
Line Loop(      95) = {      83,      16,     -80};
Surface(      96) = {      95};
Line(      84) = {     249,     250};
Line Loop(      97) = {      75,      17,     -80,     -84};
Surface(      98) = {      97};
Line Loop(      99) = {      76,      18,     -81,     -84};
Surface(     100) = {      99};
Line Loop(     101) = {      77,      19,     -82,     -84};
Surface(     102) = {     101};
Line Loop(     103) = {      78,      20,     -83,     -84};
Surface(     104) = {     103};
Surface Loop(       9) = {      74,      90,      10,      98,     100};
Volume(      10) = {       9};
Surface Loop(      11) = {      76,      92,      12,     100,     102};
Volume(      12) = {      11};
Surface Loop(      13) = {      78,      94,      14,     102,     104};
Volume(      14) = {      13};
Surface Loop(      15) = {      80,      96,      16,     104,      98};
Volume(      16) = {      15};
Point(     251) = { 179.0368000, 132.6047000,-123.4641000,lc};
Line(      85) = {     251,      13};
Line(      86) = {     251,      14};
Line(      87) = {     251,      15};
Line(      88) = {     251,      16};
Line Loop(     105) = {      85,      21,     -86};
Surface(     106) = {     105};
Line Loop(     107) = {      86,      22,     -87};
Surface(     108) = {     107};
Line Loop(     109) = {      87,      23,     -88};
Surface(     110) = {     109};
Line Loop(     111) = {      88,      24,     -85};
Surface(     112) = {     111};
Line(      89) = {     250,     251};
Line Loop(     113) = {      80,      25,     -85,     -89};
Surface(     114) = {     113};
Line Loop(     115) = {      81,      26,     -86,     -89};
Surface(     116) = {     115};
Line Loop(     117) = {      82,      27,     -87,     -89};
Surface(     118) = {     117};
Line Loop(     119) = {      83,      28,     -88,     -89};
Surface(     120) = {     119};
Surface Loop(      17) = {      90,     106,      18,     114,     116};
Volume(      18) = {      17};
Surface Loop(      19) = {      92,     108,      20,     116,     118};
Volume(      20) = {      19};
Surface Loop(      21) = {      94,     110,      22,     118,     120};
Volume(      22) = {      21};
Surface Loop(      23) = {      96,     112,      24,     120,     114};
Volume(      24) = {      23};
Point(     252) = { 174.6204160, 146.2980520,-124.8248560,lc};
Line(      90) = {     252,      17};
Line(      91) = {     252,      18};
Line(      92) = {     252,      19};
Line(      93) = {     252,      20};
Line Loop(     121) = {      90,      29,     -91};
Surface(     122) = {     121};
Line Loop(     123) = {      91,      30,     -92};
Surface(     124) = {     123};
Line Loop(     125) = {      92,      31,     -93};
Surface(     126) = {     125};
Line Loop(     127) = {      93,      32,     -90};
Surface(     128) = {     127};
Line(      94) = {     252,      21};
Line Loop(     129) = {      91,      37,     -94};
Surface(     130) = {     129};
Line Loop(     131) = {      94,      38,     -93};
Surface(     132) = {     131};
Line(      95) = {     251,     252};
Line Loop(     133) = {      85,      33,     -90,     -95};
Surface(     134) = {     133};
Line Loop(     135) = {      86,      34,     -91,     -95};
Surface(     136) = {     135};
Line Loop(     137) = {      87,      35,     -92,     -95};
Surface(     138) = {     137};
Line Loop(     139) = {      88,      36,     -93,     -95};
Surface(     140) = {     139};
Surface Loop(      25) = {     106,     122,      26,     134,     136};
Volume(      26) = {      25};
Surface Loop(      27) = {     108,     124,      28,     136,     138};
Volume(      28) = {      27};
Surface Loop(      29) = {     110,     126,      30,     138,     140};
Volume(      30) = {      29};
Surface Loop(      31) = {     112,     128,      32,     140,     134};
Volume(      32) = {      31};
Point(     253) = { 189.2726750, 150.8751300,-124.9834075,lc};
Line(      96) = {     253,      23};
Line(      97) = {     253,      24};
Line(      98) = {     253,      25};
Line(      99) = {     253,      22};
Line Loop(     141) = {      96,      39,     -97};
Surface(     142) = {     141};
Line Loop(     143) = {      97,      40,     -98};
Surface(     144) = {     143};
Line Loop(     145) = {      98,      41,     -99};
Surface(     146) = {     145};
Line Loop(     147) = {      99,      42,     -96};
Surface(     148) = {     147};
Line(     100) = {     252,     253};
Line Loop(     149) = {      90,      43,     -96,    -100};
Surface(     150) = {     149};
Line Loop(     151) = {      91,      44,     -97,    -100};
Surface(     152) = {     151};
Line Loop(     153) = {      94,      45,     -98,    -100};
Surface(     154) = {     153};
Line Loop(     155) = {      93,      46,     -99,    -100};
Surface(     156) = {     155};
Surface Loop(      33) = {     122,     142,      34,     150,     152};
Volume(      34) = {      33};
Surface Loop(      35) = {     130,     144,      36,     152,     154};
Volume(      36) = {      35};
Surface Loop(      37) = {     132,     146,      38,     154,     156};
Volume(      38) = {      37};
Surface Loop(      39) = {     128,     148,      40,     156,     150};
Volume(      40) = {      39};
Point(     254) = { 149.2387550, 148.2243400,-125.2638800,lc};
Line(     101) = {     254,      31};
Line(     102) = {     254,      32};
Line(     103) = {     254,      33};
Line(     104) = {     254,      30};
Line Loop(     157) = {     101,      47,    -102};
Surface(     158) = {     157};
Line Loop(     159) = {     102,      48,    -103};
Surface(     160) = {     159};
Line Loop(     161) = {     103,      49,    -104};
Surface(     162) = {     161};
Line Loop(     163) = {     104,      50,    -101};
Surface(     164) = {     163};
Line(     105) = {     252,     254};
Line Loop(     165) = {      94,      51,    -101,    -105};
Surface(     166) = {     165};
Line Loop(     167) = {      91,      52,    -102,    -105};
Surface(     168) = {     167};
Line Loop(     169) = {      92,      53,    -103,    -105};
Surface(     170) = {     169};
Line Loop(     171) = {      93,      54,    -104,    -105};
Surface(     172) = {     171};
Surface Loop(      41) = {     130,     158,      42,     166,     168};
Volume(      42) = {      41};
Surface Loop(      43) = {     124,     160,      44,     168,     170};
Volume(      44) = {      43};
Surface Loop(      45) = {     126,     162,      46,     170,     172};
Volume(      46) = {      45};
Surface Loop(      47) = {     132,     164,      48,     172,     166};
Volume(      48) = {      47};
Point(     255) = { 195.9138000, 157.5211000,-128.1032000,lc};
Line(     106) = {     255,      26};
Line(     107) = {     255,      27};
Line(     108) = {     255,      28};
Line(     109) = {     255,      29};
Line Loop(     173) = {     106,      55,    -107};
Surface(     174) = {     173};
Line Loop(     175) = {     107,      56,    -108};
Surface(     176) = {     175};
Line Loop(     177) = {     108,      57,    -109};
Surface(     178) = {     177};
Line Loop(     179) = {     109,      58,    -106};
Surface(     180) = {     179};
Line(     110) = {     253,     255};
Line Loop(     181) = {      99,      59,    -106,    -110};
Surface(     182) = {     181};
Line Loop(     183) = {      96,      60,    -107,    -110};
Surface(     184) = {     183};
Line Loop(     185) = {      97,      61,    -108,    -110};
Surface(     186) = {     185};
Line Loop(     187) = {      98,      62,    -109,    -110};
Surface(     188) = {     187};
Surface Loop(      49) = {     148,     174,      50,     182,     184};
Volume(      50) = {      49};
Surface Loop(      51) = {     142,     176,      52,     184,     186};
Volume(      52) = {      51};
Surface Loop(      53) = {     144,     178,      54,     186,     188};
Volume(      54) = {      53};
Surface Loop(      55) = {     146,     180,      56,     188,     182};
Volume(      56) = {      55};
Point(     256) = { 131.9375000, 151.5753000,-127.1773000,lc};
Line(     111) = {     256,      34};
Line(     112) = {     256,      35};
Line(     113) = {     256,      36};
Line(     114) = {     256,      37};
Line Loop(     189) = {     111,      63,    -112};
Surface(     190) = {     189};
Line Loop(     191) = {     112,      64,    -113};
Surface(     192) = {     191};
Line Loop(     193) = {     113,      65,    -114};
Surface(     194) = {     193};
Line Loop(     195) = {     114,      66,    -111};
Surface(     196) = {     195};
Line(     115) = {     254,     256};
Line Loop(     197) = {     104,      67,    -111,    -115};
Surface(     198) = {     197};
Line Loop(     199) = {     101,      68,    -112,    -115};
Surface(     200) = {     199};
Line Loop(     201) = {     102,      69,    -113,    -115};
Surface(     202) = {     201};
Line Loop(     203) = {     103,      70,    -114,    -115};
Surface(     204) = {     203};
Surface Loop(      57) = {     164,     190,      58,     198,     200};
Volume(      58) = {      57};
Surface Loop(      59) = {     158,     192,      60,     200,     202};
Volume(      60) = {      59};
Surface Loop(      61) = {     160,     194,      62,     202,     204};
Volume(      62) = {      61};
Surface Loop(      63) = {     162,     196,      64,     204,     198};
Volume(      64) = {      63};

/* Physical surface for entry caps */

Physical Surface("inlet") = {    66,    68,    70,    72};

/* Physical surface for exit caps */

Physical Surface("LMPA") = {   174,   176,   178,   180};
Physical Surface("RMPA") = {   190,   192,   194,   196};

/* Physical surface for walls */

Physical Surface("wall") = {     2,     4,     6,     8,    10,    12,    14,    16,    18,    20,    22,    24,    26,    28,    30,    32,    34,    36,    38,    40,    42,    44,    46,    48,    50,    52,    54,    56,    58,    60,    62,    64};

/* Physical surface for centres */

//Physical Surface(4) = {    82,    84,    86,    88,    98,   100,   102,   104,   114,   116,   118,   120,   134,   136,   138,   140,   150,   152,   154,   156,   166,   168,   170,   172,   182,   184,   186,   188,   198,   200,   202,   204};

Physical Volume("domain") = {     2,     4,     6,     8,    10,    12,    14,    16,    18,    20,    22,    24,    26,    28,    30,    32,    34,    36,    38,    40,    42,    44,    46,    48,    50,    52,    54,    56,    58,    60,    62,    64};


//Mesh.Algorithm = 3;
//Mesh.Smoothing = 4;
//Mesh.Algorithm3D = 2;
//+
Recursive Delete {
  Surface{82}; Surface{84}; Surface{86}; Surface{88}; Surface{98}; Surface{100}; Surface{102}; Surface{104}; Surface{114}; Surface{116}; Surface{118}; Surface{120}; Surface{134}; Surface{136,   138,   140}; Surface{150}; Surface{152}; Surface{154}; Surface{156}; Surface{166}; Surface{168}; Surface{170}; Surface{172}; Surface{182}; Surface{184}; Surface{186}; Surface{188}; Surface{198}; Surface{202}; Surface{204}; 
}

Mesh.MshFileVersion = 2.2;
